<svg width="20" height="20" viewBox="0 0 20 20" fill="none" xmlns="http://www.w3.org/2000/svg">
<path opacity="0.34" d="M4.16406 8.33464H5.83073C7.4974 8.33464 8.33073 7.5013 8.33073 5.83464V4.16797C8.33073 2.5013 7.4974 1.66797 5.83073 1.66797H4.16406C2.4974 1.66797 1.66406 2.5013 1.66406 4.16797V5.83464C1.66406 7.5013 2.4974 8.33464 4.16406 8.33464Z" stroke="#212121" stroke-width="1.5" stroke-miterlimit="10" stroke-linecap="round" stroke-linejoin="round"/>
<path d="M14.1641 8.33464H15.8307C17.4974 8.33464 18.3307 7.5013 18.3307 5.83464V4.16797C18.3307 2.5013 17.4974 1.66797 15.8307 1.66797H14.1641C12.4974 1.66797 11.6641 2.5013 11.6641 4.16797V5.83464C11.6641 7.5013 12.4974 8.33464 14.1641 8.33464Z" stroke="#212121" stroke-width="1.5" stroke-miterlimit="10" stroke-linecap="round" stroke-linejoin="round"/>
<path opacity="0.34" d="M14.1641 18.3346H15.8307C17.4974 18.3346 18.3307 17.5013 18.3307 15.8346V14.168C18.3307 12.5013 17.4974 11.668 15.8307 11.668H14.1641C12.4974 11.668 11.6641 12.5013 11.6641 14.168V15.8346C11.6641 17.5013 12.4974 18.3346 14.1641 18.3346Z" stroke="#212121" stroke-width="1.5" stroke-miterlimit="10" stroke-linecap="round" stroke-linejoin="round"/>
<path d="M4.16406 18.3346H5.83073C7.4974 18.3346 8.33073 17.5013 8.33073 15.8346V14.168C8.33073 12.5013 7.4974 11.668 5.83073 11.668H4.16406C2.4974 11.668 1.66406 12.5013 1.66406 14.168V15.8346C1.66406 17.5013 2.4974 18.3346 4.16406 18.3346Z" stroke="#212121" stroke-width="1.5" stroke-miterlimit="10" stroke-linecap="round" stroke-linejoin="round"/>
</svg>
