<svg width="32" height="39" viewBox="0 0 32 39" fill="none" xmlns="http://www.w3.org/2000/svg">
<g filter="url(#filter0_d_4_16)">
<path d="M26.9884 21.9355C25.9776 20.6786 24.0863 18.7877 24.0863 12.5938C24.0863 7.88926 21.2359 4.12324 17.3926 3.1993V1.9375C17.3926 0.867637 16.6434 0 15.7194 0C14.7955 0 14.0463 0.867637 14.0463 1.9375V3.1993C10.203 4.12324 7.35262 7.88926 7.35262 12.5938C7.35262 18.7877 5.4613 20.6786 4.4505 21.9355C4.13659 22.3261 3.99742 22.7929 4.00004 23.25C4.00579 24.243 4.67913 25.1875 5.67947 25.1875H25.7594C26.7598 25.1875 27.4336 24.243 27.4389 23.25C27.4415 22.7929 27.3023 22.3254 26.9884 21.9355ZM7.53312 22.2812C8.64333 20.5878 9.85713 17.7808 9.86288 12.6289C9.86288 12.6168 9.85974 12.6059 9.85974 12.5938C9.85974 8.84832 12.483 5.8125 15.7194 5.8125C18.9559 5.8125 21.5792 8.84832 21.5792 12.5938C21.5792 12.6059 21.576 12.6168 21.576 12.6289C21.5818 17.7814 22.7956 20.5884 23.9058 22.2812H7.53312ZM15.7194 31C17.5673 31 19.0663 29.2653 19.0663 27.125H12.3726C12.3726 29.2653 13.8715 31 15.7194 31Z" fill="black"/>
</g>
<defs>
<filter id="filter0_d_4_16" x="0" y="0" width="31.4388" height="39" filterUnits="userSpaceOnUse" color-interpolation-filters="sRGB">
<feFlood flood-opacity="0" result="BackgroundImageFix"/>
<feColorMatrix in="SourceAlpha" type="matrix" values="0 0 0 0 0 0 0 0 0 0 0 0 0 0 0 0 0 0 127 0" result="hardAlpha"/>
<feOffset dy="4"/>
<feGaussianBlur stdDeviation="2"/>
<feComposite in2="hardAlpha" operator="out"/>
<feColorMatrix type="matrix" values="0 0 0 0 0 0 0 0 0 0 0 0 0 0 0 0 0 0 0.25 0"/>
<feBlend mode="normal" in2="BackgroundImageFix" result="effect1_dropShadow_4_16"/>
<feBlend mode="normal" in="SourceGraphic" in2="effect1_dropShadow_4_16" result="shape"/>
</filter>
</defs>
</svg>
